<svg xmlns="http://www.w3.org/2000/svg" xmlns:xlink="http://www.w3.org/1999/xlink"><symbol id="arrow-bottom" viewBox="0 0 32.6 20" xmlns="http://www.w3.org/2000/svg"><style>.ast0{fill:#231f20}</style><path class="ast0" d="M17.6 18.4L31.8 4c.7-.7.7-1.9 0-2.6-.7-.7-1.9-.7-2.6 0L16.3 14.5 3.4 1.4C2.7.7 1.5.7.8 1.4c-.3.4-.5.9-.5 1.3s.2.9.5 1.3L15 18.4c.7.8 1.9.8 2.6 0z"/></symbol><symbol viewBox="0 0 99.28 118.73" id="arrow-down" xmlns="http://www.w3.org/2000/svg"><path d="M98.57 68.81l-9.97-9.83-32.17 32.45V.5h-14v90.51L10.61 59.19l-9.9 9.9 48.93 48.93 48.93-49.21z"/></symbol><symbol id="arrow-left" viewBox="0 0 18.1 32" xmlns="http://www.w3.org/2000/svg"><style>.cst0{fill:#231f20}</style><path class="cst0" d="M.5 17.3l14.4 14.2c.7.7 1.9.7 2.6 0 .7-.7.7-1.9 0-2.6L4.4 16 17.5 3.1c.7-.7.7-1.9 0-2.6-.3-.3-.8-.5-1.3-.5s-.9.2-1.3.5L.5 14.7c-.7.7-.7 1.9 0 2.6z"/></symbol><symbol id="arrow-right" viewBox="0 0 18.1 32" xmlns="http://www.w3.org/2000/svg"><style>.dst0{fill:#231f20}</style><path class="dst0" d="M17.5 14.7L3.1.5C2.4-.2 1.2-.2.5.5c-.7.7-.7 1.9 0 2.6L13.6 16 .5 28.9c-.7.7-.7 1.9 0 2.6.4.3.9.5 1.3.5s.9-.2 1.3-.5l14.4-14.2c.8-.7.8-1.9 0-2.6z"/></symbol><symbol viewBox="0 0 32 32" id="beer" xmlns="http://www.w3.org/2000/svg"><path d="M23.9 13h-2.7v-.5c.9-.7 1.5-1.7 1.5-3 0-1.8-1.3-3.3-2.9-3.6-.5-1.8-2.1-3.2-4-3.2-1.1 0-2.1.4-2.9 1.2-.3-.1-.6-.1-.8-.1-1.4 0-2.5.8-3.1 2h-.2c-2 0-3.6 1.6-3.6 3.7 0 1.1.5 2.1 1.3 2.8v15.2c0 .9.7 1.6 1.6 1.6h11.6c.9 0 1.6-.7 1.6-1.6v-2.4H24c1.6 0 2.9-1.3 2.9-3V16c-.1-1.7-1.4-3-3-3zm-4.8-1.8H9.9v3.3c0 .6-.4 1-1 1s-1-.5-1-1V11c-.4-.3-.7-.8-.7-1.4 0-.9.7-1.6 1.6-1.6.2 0 .4 0 .6.1.2.1.5 0 .8-.1.3-.2.4-.5.5-.8 0-.7.6-1.3 1.3-1.3.2 0 .4.1.6.2.4.2 1 .1 1.3-.3.4-.6 1.1-.9 1.8-.9 1.2 0 2.1.9 2.2 2.1 0 .3.1.5.3.7.2.2.5.3.8.2h.1c.9 0 1.6.7 1.6 1.6s-.8 1.7-1.6 1.7zm5 11c0 .1-.1.2-.2.2h-2.7v-6.6h2.7c.1 0 .2.1.2.2v6.2z"/></symbol><symbol viewBox="0 0 32 32" id="facebook" xmlns="http://www.w3.org/2000/svg"><path d="M24 0h-4.1c-4.7 0-7.7 3.1-7.7 7.9v3.6H8c-.4 0-.7.3-.7.7v5.3c0 .4.3.7.7.7h4.2v13.3c0 .4.3.7.7.7h5.4c.4 0 .7-.3.7-.7V18.1h4.9c.4 0 .7-.3.7-.7v-5.3c0-.2-.1-.3-.2-.5-.1-.1-.3-.2-.5-.2H19v-3c0-1.5.4-2.2 2.3-2.2h2.8c.4 0 .7-.3.7-.7V.7c-.1-.4-.4-.7-.8-.7z"/></symbol><symbol viewBox="0 0 60 60" id="folder" xmlns="http://www.w3.org/2000/svg"><path d="M56.2 21.4h-2.9v-5.5c0-1.7-1.4-3.1-3.1-3.1H26.9l-4.8-6.7H4C2.3 6.1.9 7.5.9 9.2v42.2c.1.5.3.9.6 1.3.6.7 1.4 1.1 2.3 1.1h42.7c1.3 0 2.5-.9 2.8-2L59 25.1v-.3c.1-2-1.1-3.4-2.8-3.4zm-42.7 3l42.7-.1s0 .1.1.2l-9.6 26.4-.2.1H3.8l-.1-.1 9.8-26.5zm37-3H13c-1.1.2-2 1-2.3 2l-7 19V9.2c.1-.1.2-.2.3-.2h16.7l4.8 6.7h24.8c.1 0 .2.1.2.2v5.5z"/></symbol><symbol viewBox="0 0 32 32" id="google" xmlns="http://www.w3.org/2000/svg"><path d="M10.5 14.9v2.5c0 .4.3.7.7.7h5c-.9 2.5-3.3 4.3-6 4.2-3.4 0-6.2-2.7-6.3-6.1-.1-3.6 2.8-6.6 6.3-6.6 1.6 0 3.1.6 4.3 1.6.3.2.7.2.9 0l1.8-1.7c.3-.3.3-.7 0-1-1.8-1.7-4.2-2.8-6.8-2.8C4.8 5.7 0 10.3 0 15.9c0 5.7 4.6 10.3 10.2 10.3 5.5 0 9.9-4.3 10.2-9.7v-2.4h-9.2c-.4.1-.7.4-.7.8zm20.9-.4h-2.5V12c0-.3-.3-.6-.6-.6h-2.1c-.3 0-.6.3-.6.6v2.5h-2.5c-.3 0-.6.3-.6.6v2.1c0 .3.3.6.6.6h2.5v2.5c0 .3.3.6.6.6h2.1c.3 0 .6-.3.6-.6v-2.5h2.5c.3 0 .6-.3.6-.6v-2.1c0-.4-.3-.6-.6-.6z"/></symbol><symbol viewBox="0 0 32 32" id="grid" xmlns="http://www.w3.org/2000/svg"><path d="M2 2h10.6v10.6H2zM19.4 2H30v10.6H19.4zM2 19.4h10.6V30H2zM19.4 19.4H30V30H19.4z"/></symbol><symbol viewBox="0 0 32 32" id="guitare" xmlns="http://www.w3.org/2000/svg"><path d="M30.6 2.8L28.7.9c-.3-.3-.7-.4-.9-.3l-.4.4c-.3.8-.9 1.6-1.7 2.4-.8.8-1.6 1.4-2.4 1.7l-.1.1c.4.5.3 1.2-.2 1.8l-5.1 5.1c-.2 0-.6-.2-1.1-.9-.8-1.4-2.8-2.1-4.4.7-1.6 2.9-.3 3.3-4.9 3.9-1.6.1-3.2.7-4.4 1.9-2.8 2.8-2.5 7.8.7 11s8.1 3.6 11 .7c.1-.1.1-.1.1-.2v-.1c.2-.2.4-.5.6-.8.7-1 1.8-2.9 1.5-4.9-.4-2.9 2.4-2.8 3.5-3.6 1.1-.7 1.5-1.4 1.6-2.1 0 0-1.4 1-2.6-.3-1-1-.6-2.7-.1-3.6l5.2-5.5c.5-.5 1.2-.6 1.7-.3l.1-.1c.3-.8.9-1.6 1.7-2.4.8-.8 1.6-1.4 2.4-1.7 0 0 .1-.2.3-.3.2.1.1-.4-.2-.7z"/></symbol><symbol viewBox="0 0 32 32" id="headphone" xmlns="http://www.w3.org/2000/svg"><path d="M26.6 17.2h-.2v-1c.5-.3.8-.8.8-1.3 0-6.1-5-11.1-11.2-11.1-6.2 0-11.2 5-11.2 11.1 0 .6.3 1.1.8 1.3v1h-.2c-2.2 0-4 2.1-4 4.6v1.5c0 2.5 1.8 4.6 4 4.6h1.8l.2.1c.2.1.3.2.5.2s.4-.1.5-.2c.2-.2.2-.4.2-.6.1-.2.2-.4.2-.7v-8.4c0-.6-.5-1.1-1.2-1.1h-.5v-1c.5-.3.8-.8.8-1.3 0-4.4 3.6-8 8.1-8s8.1 3.6 8.1 8c0 .6.3 1.1.8 1.3v1h-.6c-.6 0-1.2.5-1.2 1.1v8.4c0 .2.1.5.2.7 0 .2 0 .5.2.6.2.1.3.2.5.2s.4-.1.5-.2l.2-.2h1.8c2.2 0 4-2.1 4-4.6v-1.5c.1-2.5-1.7-4.5-3.9-4.5z"/></symbol><symbol viewBox="0 0 32 32" id="lightning" xmlns="http://www.w3.org/2000/svg"><path d="M31.9 0L8 16l6 4L.1 32 24 20l-6-4z"/></symbol><symbol viewBox="0 0 32 32" id="link" xmlns="http://www.w3.org/2000/svg"><path d="M29.8 2.3l-.1-.1C26.8-.7 21.9-.7 19 2.2L12.2 9c-2.9 2.9-2.9 7.8 0 10.7l.1.1c.2.2.5.5.8.7l2.5-2.5c-.3-.2-.6-.4-.8-.6l-.1-.1c-1.6-1.6-1.6-4.2 0-5.8l6.8-6.8c1.6-1.6 4.2-1.6 5.8 0l.1.1c1.6 1.6 1.6 4.2 0 5.8l-3.1 3.1c.5 1.3.8 2.7.8 4.1l4.8-4.8c2.8-2.9 2.8-7.7-.1-10.7zm-10.1 9.9c-.2-.2-.5-.5-.8-.7L16.5 14c.3.2.6.4.8.6l.1.1c1.6 1.6 1.6 4.2 0 5.8l-6.8 6.8c-1.6 1.6-4.2 1.6-5.8 0l-.1-.1c-1.6-1.6-1.6-4.2 0-5.8l3.1-3.1C7.2 17 7 15.6 7 14.2L2.2 19c-2.9 2.9-2.9 7.8 0 10.7l.1.1c2.9 2.9 7.8 2.9 10.7 0l6.8-6.8c2.9-2.9 2.9-7.8 0-10.7l-.1-.1z"/></symbol><symbol id="logo" viewBox="0 0 256.9 60" xmlns="http://www.w3.org/2000/svg"><style>.nst0{fill:#231f20}</style><path class="nst0" d="M58.1 20.2v27.5h6v10.7h-8.8l-7.8-6.6V20.2h-6V11h6V.3h10.6V11h6.8v9.2h-6.8zm172.5 28.6c-8 0-14-6.8-14-14.7 0-8 6.5-14.3 14.3-14.3 7.9 0 14 6.8 14 14.6-.1 7.9-6.4 14.4-14.3 14.4m.3-39.7c-13.7 0-24.9 11.2-24.9 25.1 0 13.8 10.9 25.3 24.6 25.3 13.9 0 24.8-11.5 24.8-25.4 0-13.6-10.9-25-24.5-25m-68 21.1c1.3-6.3 7.4-11.3 13.8-11.3 7 0 13 4.4 14.8 11.3h-28.6zm14.3-21c-14 0-24.5 11.4-24.5 25.5 0 14 11 25 24.8 25 9.8 0 18.5-6.2 22.2-15.3h-11.2c-2.6 3.9-6.7 5.7-11.4 5.7-6.7 0-12.7-4.8-14.1-11.5h38.1l.4-3.8c0-6.8-1.9-12.9-6.6-17.9-4.6-4.7-11.2-7.7-17.7-7.7m-97.4 21C81.1 24 87.2 19 93.5 19c7 0 13 4.4 14.8 11.3H79.8zm14.3-21c-14 0-24.5 11.4-24.5 25.5 0 14 11 25 24.8 25 9.8 0 18.5-6.2 22.3-15.3h-11.2c-2.6 3.9-6.7 5.7-11.4 5.7-6.7 0-12.7-4.8-14.1-11.5h38l.4-3.8c0-6.8-1.9-12.9-6.6-17.9-4.7-4.7-11.2-7.7-17.7-7.7m42.5 9.4c3-5.6 9.1-8.4 15.1-8.7v11.2c-4.5.2-6.7 1.1-9.4 3.5-3.5 3-4.2 6.9-4.2 11.4v11.8h6v10.7h-22.6V47.7h6V20.2h-6V11h15.1v7.6zm-124 26c.4 4.3 3.2 7.2 7.6 7.2 3.3 0 6.4-2.3 6.4-5.9 0-4.7-4.4-5.5-8-6.5-8.2-2.1-17.2-4.7-17.2-15.2 0-9.1 7.6-14.4 16-14.4 4.2 0 8 .9 10.7 4.3v-3.3H36v13H25.6c-.2-3.4-2.7-5.6-6.1-5.6-2.9 0-6 1.7-6 5 0 4.5 4.3 5.5 7.8 6.3 8.5 2 17.6 4.6 17.6 15.4 0 9.7-8 15-16.9 15-4.8 0-9.1-1.5-12.2-5.2v3.9H1.6v-14h11z"/></symbol><symbol viewBox="0 0 128 30" id="logo-outline" xmlns="http://www.w3.org/2000/svg"><path d="M88.6 30c-7.1 0-12.8-5.6-12.8-12.7 0-7.3 5.5-12.9 12.6-12.9 3.3 0 6.7 1.5 9.1 3.9 2.3 2.4 3.4 5.4 3.4 9.1l-.2 2.2h-19c.8 2.9 3.6 5 6.6 5 2.4 0 4.2-.9 5.4-2.7l.1-.1h6.3l-.2.5C98.1 27 93.6 30 88.6 30zm-.2-24.9c-6.7 0-12 5.4-12 12.3 0 6.7 5.3 12 12.1 12 4.6 0 8.7-2.7 10.6-6.9h-4.9c-1.3 1.9-3.4 2.8-5.9 2.8-3.5 0-6.7-2.5-7.4-5.9l-.1-.4H100l.1-1.6c0-3.5-1.1-6.3-3.2-8.6-2.1-2.4-5.4-3.7-8.5-3.7zM46.9 30c-7.1 0-12.8-5.6-12.8-12.7 0-7.3 5.5-12.9 12.6-12.9 3.3 0 6.7 1.5 9.1 3.9 2.3 2.4 3.4 5.4 3.4 9.1l-.2 2.2H40c.8 2.9 3.6 5 6.6 5 2.4 0 4.2-.9 5.4-2.7l.1-.1h6.3l-.2.5C56.4 27 52 30 46.9 30zm-.1-24.9c-6.7 0-12 5.4-12 12.3 0 6.7 5.3 12 12.1 12 4.6 0 8.7-2.7 10.6-6.9h-4.9c-1.3 1.9-3.4 2.8-5.9 2.8-3.5 0-6.7-2.5-7.4-5.9l-.1-.4h19.2l.1-1.6c0-3.5-1.1-6.3-3.2-8.6-2.2-2.4-5.4-3.7-8.5-3.7zM10.7 30c-2.3 0-4.3-.7-5.8-2.1v1.5H.2v-7.5h6.2v.3c.2 2 1.5 3.2 3.5 3.2 1.4 0 2.9-1 2.9-2.6 0-1.9-1.6-2.4-3.4-2.8l-.4-.1c-3.9-1-8.9-2.3-8.9-7.8 0-4.9 4.2-7.5 8.3-7.5 1.5 0 3.5.2 5 1.6V5.1H18v7.1h-5.9v-.3c-.1-1.5-1.2-2.5-2.7-2.5-1.3 0-2.7.7-2.7 2.1 0 1.9 1.9 2.4 3.6 2.8 3.6.8 9.1 2.1 9.1 7.9.1 5.1-4.3 7.8-8.7 7.8zm-6.4-3.8l.6.7c1.4 1.6 3.4 2.4 5.8 2.4 5.6 0 8.1-3.7 8.1-7.1 0-4.9-4-6.3-8.5-7.3-1.7-.4-4.1-1-4.1-3.4 0-1.8 1.7-2.8 3.3-2.8 1.8 0 3.1 1.1 3.4 2.8h4.6V5.8h-3.3V8l-.6-.8c-1.1-1.4-2.7-2-5.1-2C4.7 5.2.8 7.5.8 12c0 4.7 3.6 6 8.4 7.2l.4.1c1.7.5 3.9 1 3.9 3.4 0 2-1.8 3.3-3.6 3.3-2.2 0-3.8-1.4-4.1-3.5h-5v6.2h3.4v-2.5zm110.9 3.7c-7 0-12.7-5.8-12.7-12.8 0-7 5.7-12.8 12.8-12.8 7 0 12.6 5.7 12.6 12.7 0 7.1-5.7 12.9-12.7 12.9zm.1-24.9c-6.7 0-12.1 5.4-12.1 12.1 0 6.7 5.4 12.2 12 12.2 6.7 0 12.1-5.5 12.1-12.2 0-6.7-5.4-12.1-12-12.1zM72.2 29.4h-12v-6h3V10.5h-3V5.3h8.2v2.9c1.6-2.1 4.2-3.4 7.2-3.5h.3v6.2h-.3c-2.1.1-3.2.5-4.5 1.6-1.6 1.4-2 3.2-2 5.4v5.5h3v6zm-11.3-.7h10.7v-4.6h-3v-6.2c0-2.1.3-4.2 2.2-5.9 1.3-1.2 2.5-1.7 4.6-1.8V5.4c-3.1.2-5.7 1.7-6.9 4.1l-.6 1.1V6H61v3.9h3v14.3h-3v4.5zm-28.8.7h-4.9L23.1 26V10.5h-3V5.3h3V0h6v5.3h3.4v5.2h-3.4v12.9h3v6zm-4.6-.7h4v-4.6h-3V9.8h3.4V6h-3.4V.7h-4.6V6h-3v3.9h3v15.8l3.6 3zm87.7-4.1c-4.1 0-7.4-3.4-7.4-7.6 0-4.1 3.4-7.4 7.5-7.4 4 0 7.3 3.4 7.3 7.5 0 4.2-3.3 7.5-7.4 7.5zm.1-14.3c-3.8 0-6.8 3-6.8 6.7 0 3.8 3 6.9 6.7 6.9s6.8-3 6.8-6.8c-.1-3.7-3-6.8-6.7-6.8zM96 15.5H80.9l.1-.4c.7-3.3 3.9-5.8 7.2-5.8 3.7 0 6.8 2.3 7.7 5.8l.1.4zm-14.3-.7h13.4c-1-3-3.7-4.9-7-4.9-2.8 0-5.6 2.1-6.4 4.9zm-27.3.7H39.2l.1-.4c.7-3.3 3.9-5.8 7.2-5.8 3.7 0 6.8 2.3 7.7 5.8l.2.4zm-14.3-.7h13.4c-1-3-3.7-4.9-7-4.9-2.8 0-5.6 2.1-6.4 4.9z"/></symbol><symbol viewBox="0 0 14 14" id="mail" xmlns="http://www.w3.org/2000/svg"><path d="M7 9L5.268 7.484.316 11.729c.18.167.423.271.691.271h11.986c.267 0 .509-.104.688-.271L8.732 7.484 7 9z"/><path d="M13.684 2.271A1.007 1.007 0 0 0 12.993 2H1.007c-.267 0-.509.104-.689.273L7 8l6.684-5.729zM0 2.878v8.308l4.833-4.107zM9.167 7.079L14 11.186V2.875z"/></symbol><symbol id="more" viewBox="0 0 32 32" xmlns="http://www.w3.org/2000/svg"><style>.qst0{fill:#231f20}</style><path class="qst0" d="M31.4 14.7c-.3-.3-.8-.6-1.4-.6H17.8V1.9C17.9.9 17.1 0 16 0s-1.9.9-1.9 1.9V14H1.9c-1 .1-1.9.9-1.9 2 0 .5.2 1 .6 1.4.3.3.8.6 1.4.6h12.2v12.2c0 1.1.9 1.9 1.9 1.9 1.1 0 1.9-.9 1.9-1.9V18.1h12.2c1.1 0 1.9-.9 1.9-1.9-.1-.7-.3-1.2-.7-1.5z"/></symbol><symbol viewBox="0 0 124.512 124.512" id="play" xmlns="http://www.w3.org/2000/svg"><path d="M113.956 57.006l-97.4-56.2c-4-2.3-9 .6-9 5.2v112.5c0 4.6 5 7.5 9 5.2l97.4-56.2c4-2.401 4-8.2 0-10.5z"/></symbol><symbol viewBox="0 0 29.12 28.68" id="plus" xmlns="http://www.w3.org/2000/svg"><defs><style>.scls-1{fill:#168cfb;fill-rule:evenodd}</style></defs><path id="splus.svg" class="scls-1" d="M1915 2954.66v28.68h-2v-28.68h2zm-15.55 13.33h29.1v2.02h-29.1v-2.02z" transform="translate(-1899.44 -2954.66)"/></symbol><symbol viewBox="0 0 32 32" id="rock" xmlns="http://www.w3.org/2000/svg"><path d="M26.9 3.6c-.2-.7-1-.8-1.4-.2-.2.3-.4.6-.6 1-.6 1.4-.4 2.1-1.1 3.5-.4 1-.9 2-1.4 3.1-.2-.8-.6-1.3-1.3-1.4-.9-.1-1.5.3-1.8 1.3-.4-1.3-1-1.8-1.8-1.8-.7 0-1.2.4-1.5 1.7 0-.2-.1-.3-.1-.4-.6-2.2-.7-3-1.1-5.2-.2-1.3-.6-2.6-.9-3.9-.1-.6-.7-.8-1.2-.8s-.7.3-.8 1c0 .3-.1.6 0 .9.2 2.6.4 3.8.5 6.4.1 2.2 0 4.3 0 6.5 0 .8-.3.9-.9.5-.9-.6-1-.7-1.5-1.7-.6-1.3-1.7-2.1-3-2.4-.4-.1-.9-.1-1.4 0-.6.1-.8.7-.4 1.2.1.2.3.3.5.5.8.8 1.5 1.7 2 2.7 1 1.9 1.3 3 2.2 4.9.6 1.1 1.1 2.2 2 3 .3.3.7.6 1 .9.4.4.6.8.7 1.4 0 .9 0 1.8.1 2.7v.9c0 2.4 8.8 2.5 8.8 0v-2.4c0-1 0-1.9.4-2.9.4-.9.7-1.8.9-2.7.3-1.5.6-3.1.7-4.6.3-2.6.7-5.1 1.5-7.6.6-1.9.4-3.2 1-5.1.1-.4 0-.7-.1-1z"/></symbol><symbol viewBox="0 0 32 32" id="s" xmlns="http://www.w3.org/2000/svg"><path d="M16.6 13.3c-1.7-.4-3.8-.9-3.8-3.1 0-1.6 1.5-2.5 2.9-2.5 1.6 0 2.9 1.1 3 2.8h5.1V4.2h-3.9v1.6c-1.3-1.7-3.1-2.1-5.2-2.1-4.1 0-7.8 2.6-7.8 7.1 0 5.1 4.4 6.4 8.4 7.5 1.8.5 3.9.9 3.9 3.2 0 1.8-1.5 2.9-3.1 2.9-2.2 0-3.5-1.4-3.7-3.5H7v6.8h4v-1.9c1.5 1.8 3.6 2.5 5.9 2.5 4.3 0 8.2-2.6 8.2-7.4 0-5.3-4.4-6.6-8.5-7.6z"/></symbol><symbol viewBox="0 0 32 32" id="share" xmlns="http://www.w3.org/2000/svg"><path d="M24.6 21.3c-1.2 0-2.3.4-3.1 1.1l-9-5.6c0-.3.1-.6.1-.9 0-.3 0-.6-.1-.9l9-5.6c.9.7 2 1.1 3.1 1.1 2.8 0 5.2-2.4 5.2-5.3S27.4 0 24.6 0c-2.8 0-5.2 2.4-5.2 5.3 0 .3 0 .6.1.9l-9 5.6c-.9-.7-2-1.1-3.1-1.1-2.8 0-5.2 2.4-5.2 5.3s2.3 5.3 5.2 5.3c1.2 0 2.3-.4 3.1-1.1l9 5.6c0 .3-.1.6-.1.9 0 2.9 2.3 5.3 5.2 5.3 2.8 0 5.2-2.4 5.2-5.3s-2.4-5.4-5.2-5.4z"/></symbol><symbol id="skull" viewBox="0 0 24.4 32" xmlns="http://www.w3.org/2000/svg"><style>.wst0{fill:#231f20}</style><path class="wst0" d="M17.3 25.1c-.7 1.3-1 2-1.7 2.3-.7.7-2 .7-3.4.7-1.7 0-2.7 0-3.4-.7-.7-.3-1-1-1.7-2.3 0 0-.3-.3-.3-.7l-1.4.3 1 3.3 2 1.6c.7 1.6 2 2.3 3.7 2.3.7 0 1.7-.3 2-.7.7-.3 1.4-1 1.7-1.6l2-1.6 1-3.3-1.4-.3c-.1.4-.1.7-.1.7zM21 2.9C18.6 1 15.9 0 12.2 0 8.5 0 5.8 1 3.4 2.9 1.4 4.6 0 7.2 0 10.1c0 2.6.3 4.6 1 5.6 1 1.6 1.7 2.6 1.7 3.3l.3 2.5 4.7 2.3 1 2c.3 0 .7 0 1.4.3h2c1.7 0 2.7-.3 3.7-.3l.7-2 4.7-2.3.3-2.6c.3-.7.3-1 .3-1.3 1.7-2.3 2.4-4.9 2.4-7.5.2-2.9-.8-5.5-3.2-7.2zm-13.9 16c-2 0-2.7-1.3-2.7-3.3 0-1 0-2 .7-2.3.3-.7 1-1 2-1 2 0 3 1 3 2.9.1 2.4-1 3.7-3 3.7zm6.1 3.6c-.3 0-.7 0-1-.3-.3.3-.3.3-.7.3-.3 0-.7 0-1-.3-.3 0-.3-.3-.3-.7 0-.3.3-1 .7-1.3.7-.7 1-1.3 1.4-2 .3.7 1 1.3 1.4 2 .7.3.7 1 .7 1.3-.2.7-.5 1-1.2 1zm4.4-3.6c-2 0-3-1.3-3-3.3 0-2 1-3.3 3-3.3 1 0 1.7.3 2 1 .7.3.7 1 .7 2 0 2.3-1 3.6-2.7 3.6z"/></symbol><symbol id="skull-donot" viewBox="0 0 24.4 32" xmlns="http://www.w3.org/2000/svg"><style>.xst0{fill:#231f20}</style><path class="xst0" d="M17.3 25.1c-.7 1.3-1 2-1.7 2.3-.7.7-2 .7-3.4.7-1.7 0-2.7 0-3.4-.7-.7-.3-1-1-1.7-2.3 0 0-.3-.3-.3-.7l-1.4.3 1 3.3 2 1.6c.7 1.6 2 2.3 3.7 2.3.7 0 1.7-.3 2-.7.7-.3 1.4-1 1.7-1.6l2-1.6 1-3.3-1.4-.3c-.1.4-.1.7-.1.7zM21 2.9C18.6 1 15.9 0 12.2 0 8.5 0 5.8 1 3.4 2.9 1.4 4.6 0 7.2 0 10.1c0 2.6.3 4.6 1 5.6 1 1.6 1.7 2.6 1.7 3.3l.3 2.5 4.7 2.3 1 2c.3 0 .7 0 1.4.3h2c1.7 0 2.7-.3 3.7-.3l.7-2 4.7-2.3.3-2.6c.3-.7.3-1 .3-1.3 1.7-2.3 2.4-4.9 2.4-7.5.2-2.9-.8-5.5-3.2-7.2zm-13.9 16c-2 0-2.7-1.3-2.7-3.3 0-1 0-2 .7-2.3.3-.7 1-1 2-1 2 0 3 1 3 2.9.1 2.4-1 3.7-3 3.7zm6.1 3.6c-.3 0-.7 0-1-.3-.3.3-.3.3-.7.3-.3 0-.7 0-1-.3-.3 0-.3-.3-.3-.7 0-.3.3-1 .7-1.3.7-.7 1-1.3 1.4-2 .3.7 1 1.3 1.4 2 .7.3.7 1 .7 1.3-.2.7-.5 1-1.2 1zm4.4-3.6c-2 0-3-1.3-3-3.3 0-2 1-3.3 3-3.3 1 0 1.7.3 2 1 .7.3.7 1 .7 2 0 2.3-1 3.6-2.7 3.6z"/></symbol><symbol viewBox="0 0 32 32" id="twitter" xmlns="http://www.w3.org/2000/svg"><path d="M31.5 5.6c-.7.4-1.5.6-2.2.8.8-.8 1.5-1.8 1.8-2.9.1-.3-.2-.6-.5-.4-1.1.6-2.2 1.1-3.4 1.4H27c-.2 0-.4-.1-.6-.2-1.3-1.1-2.9-1.7-4.6-1.7-.7 0-1.5.1-2.2.3-2.2.7-4 2.6-4.5 4.9-.2.9-.3 1.7-.2 2.6 0 .1 0 .2-.1.2 0 .1-.1.1-.2.1-4.8-.6-9.2-3-12.3-6.8-.2-.2-.5-.2-.6 0-.6 1.1-1 2.3-1 3.5 0 1.9.8 3.7 2.1 5-.5-.1-1.1-.3-1.6-.6-.2-.1-.5 0-.5.3 0 2.8 1.6 5.3 4 6.5h-.1c-.4 0-.8 0-1.2-.1-.3-.1-.5.2-.4.5.8 2.5 2.9 4.3 5.5 4.8C6.4 25.2 3.9 26 1.4 26H.5c-.2 0-.5.2-.5.4-.1.2.1.5.3.6 2.9 1.7 6.2 2.6 9.5 2.6 2.9 0 5.7-.6 8.1-1.7 2.3-1.1 4.3-2.6 5.9-4.5 1.6-1.8 2.8-3.9 3.6-6.2.8-2.2 1.2-4.5 1.2-6.8v-.1c0-.4.2-.7.4-.9 1.1-.9 2-1.9 2.7-3.1.4-.4.1-.8-.2-.7zm0 0"/></symbol></svg>